<svg id="Layer_1" data-name="Layer 1" xmlns="http://www.w3.org/2000/svg" viewBox="0 0 696.7 65.6"><defs><style>.cls-1{fill:#fff;}.cls-2{fill:#242e7c;}.cls-3{fill:#5c9424;}.cls-4{fill:#7b2330;fill-rule:evenodd;}.cls-5{fill:#ffdc00;}.cls-6{fill:#f9fcff;}.cls-7{fill:#e2051b;}</style></defs><title>logo_1</title><path class="cls-1" d="M67.4,20.9H80v5.9H75v5.5h4.7v5.5H75v6.5h5.5v5.8H67.4Z"/><path class="cls-1" d="M100.6,20.9V40.4a45.5,45.5,0,0,1-.2,4.7,6.7,6.7,0,0,1-1.3,2.7A6.2,6.2,0,0,1,96.3,50a10.4,10.4,0,0,1-4.1.7,11.1,11.1,0,0,1-4.6-.9,6.9,6.9,0,0,1-3-2.2,5.6,5.6,0,0,1-1.2-2.9c-.1-1.1-.2-3.2-.2-6.5V20.9h7.6V42.8a9.6,9.6,0,0,0,.2,2.4,1,1,0,0,0,.9.6.8.8,0,0,0,.9-.6,13.5,13.5,0,0,0,.2-2.8V20.9Z"/><path class="cls-1" d="M104.2,20.9h5.3a37.1,37.1,0,0,1,7.3.5,4.4,4.4,0,0,1,3.1,2.1q1.2,1.7,1.2,5.4c0,2.3-.3,3.8-.9,4.6s-1.6,1.2-3.3,1.4a4.7,4.7,0,0,1,3,1.5,4.4,4.4,0,0,1,1,1.7,30.4,30.4,0,0,1,.2,4.3v7.7H114V40.4a8.1,8.1,0,0,0-.3-2.9c-.3-.4-.9-.6-2-.6V50.1h-7.5Zm7.5,5v6.5a3.6,3.6,0,0,0,1.8-.3c.4-.3.5-1,.5-2.3V28.2c0-.9-.1-1.6-.5-1.8A2.6,2.6,0,0,0,111.7,25.9Z"/><path class="cls-1" d="M142,38c0,2.9-.1,5-.2,6.2a7.8,7.8,0,0,1-1.3,3.4,6.9,6.9,0,0,1-3,2.3,11.4,11.4,0,0,1-4.3.8,9.3,9.3,0,0,1-4.2-.8,6.8,6.8,0,0,1-3-2.3,6.9,6.9,0,0,1-1.4-3.3c-.1-1.2-.2-3.3-.2-6.3V33c0-2.9.1-5,.2-6.2a7.9,7.9,0,0,1,1.3-3.3,7.1,7.1,0,0,1,3-2.4,11.4,11.4,0,0,1,4.3-.8,10.8,10.8,0,0,1,4.2.8,7.6,7.6,0,0,1,3,2.3,6.9,6.9,0,0,1,1.4,3.3c.1,1.2.2,3.3.2,6.3Zm-7.6-9.6a12.6,12.6,0,0,0-.2-2.6c-.2-.4-.5-.5-1-.5a1,1,0,0,0-.9.4,6.7,6.7,0,0,0-.3,2.7V42a17.3,17.3,0,0,0,.2,3.2,1,1,0,0,0,1,.6,1.1,1.1,0,0,0,1-.7,19.6,19.6,0,0,0,.2-3.3Z"/><path class="cls-1" d="M145.4,20.9h7.7a18.6,18.6,0,0,1,4.7.5,5,5,0,0,1,2.5,1.4,4.6,4.6,0,0,1,1.2,2.3,19,19,0,0,1,.3,4v2.5a10.1,10.1,0,0,1-.6,4.1,4.1,4.1,0,0,1-2.1,2,11.6,11.6,0,0,1-4.1.7h-2V50.1h-7.6Zm7.6,5v7.4h.6a1.8,1.8,0,0,0,1.4-.5,3.9,3.9,0,0,0,.4-2.2V28.3c0-1-.1-1.6-.4-1.9A3.2,3.2,0,0,0,153,25.9Z"/><path class="cls-1" d="M164.6,20.9h12.6v5.9h-5.1v5.5h4.8v5.5h-4.8v6.5h5.6v5.8H164.6Z"/><path class="cls-1" d="M193.6,20.9,198,50.1h-7.8l-.4-5.2h-2.7l-.5,5.2h-7.8l3.9-29.2Zm-4,18.8c-.4-3.3-.8-7.4-1.1-12.3q-1.2,8.4-1.5,12.3Z"/><path class="cls-1" d="M216.8,20.9V50.1h-6.6l-4-13.3V50.1h-6.3V20.9h6.3l4.3,13.2V20.9Z"/><path class="cls-1" d="M236.9,20.9V40.4c0,2.9,0,4.8-.1,5.7a4.5,4.5,0,0,1-.8,2.2,4.1,4.1,0,0,1-2,1.4,12.1,12.1,0,0,1-3.8.4h-3.8V45h1a2.5,2.5,0,0,0,1.3-.4,1.4,1.4,0,0,0,.5-1,12.3,12.3,0,0,0,.1-2.3V20.9Z"/><path class="cls-1" d="M257.7,20.9V40.4a45.5,45.5,0,0,1-.2,4.7,7.3,7.3,0,0,1-4.1,4.9,10.4,10.4,0,0,1-4.1.7,10.8,10.8,0,0,1-4.6-.9,5.9,5.9,0,0,1-3-2.2,5.6,5.6,0,0,1-1.2-2.9c-.1-1.1-.2-3.2-.2-6.5V20.9h7.6V42.8a9.6,9.6,0,0,0,.2,2.4,1,1,0,0,0,1.8,0,13.5,13.5,0,0,0,.2-2.8V20.9Z"/><path class="cls-1" d="M261.2,20.9h5.7a36.8,36.8,0,0,1,7.4.5,6.2,6.2,0,0,1,3,1.7,4.5,4.5,0,0,1,1.2,2.6,32,32,0,0,1,.3,5.5V41.4a20.9,20.9,0,0,1-.4,5.3,3.3,3.3,0,0,1-1.3,2.1,5,5,0,0,1-2.2,1,20.7,20.7,0,0,1-4.1.3h-9.6Zm7.6,5V45.1c1.1,0,1.8-.2,2-.7s.4-1.6.4-3.5V29.5a14.3,14.3,0,0,0-.1-2.5,1.2,1.2,0,0,0-.6-.8A3.2,3.2,0,0,0,268.8,25.9Z"/><path class="cls-1" d="M299.6,38c0,2.9-.1,5-.2,6.2a7.8,7.8,0,0,1-1.3,3.4,6.4,6.4,0,0,1-3,2.3,11,11,0,0,1-4.3.8,9.6,9.6,0,0,1-4.2-.8,6.8,6.8,0,0,1-4.3-5.6A44.4,44.4,0,0,1,282,38V33c0-2.9.1-5,.2-6.2a7.9,7.9,0,0,1,1.3-3.3,7.8,7.8,0,0,1,3-2.4,11.4,11.4,0,0,1,4.3-.8,10.8,10.8,0,0,1,4.2.8,6.4,6.4,0,0,1,3,2.3,6.9,6.9,0,0,1,1.4,3.3c.1,1.2.2,3.3.2,6.3ZM292,28.4a12.6,12.6,0,0,0-.2-2.6c-.2-.4-.5-.5-1-.5a1.1,1.1,0,0,0-.9.4,6.7,6.7,0,0,0-.3,2.7V42a17.3,17.3,0,0,0,.2,3.2,1,1,0,0,0,1,.6,1.1,1.1,0,0,0,1-.7,19.6,19.6,0,0,0,.2-3.3Z"/><path class="cls-1" d="M327.4,20.9V40.4a45.5,45.5,0,0,1-.2,4.7,6.7,6.7,0,0,1-1.3,2.7,6.2,6.2,0,0,1-2.8,2.2,10.4,10.4,0,0,1-4.1.7,11.1,11.1,0,0,1-4.6-.9,6.9,6.9,0,0,1-3-2.2,6.7,6.7,0,0,1-1.2-2.9c-.1-1.1-.1-3.2-.1-6.5V20.9h7.5V42.8a9.6,9.6,0,0,0,.2,2.4,1,1,0,0,0,.9.6.8.8,0,0,0,.9-.6,13.5,13.5,0,0,0,.2-2.8V20.9Z"/><path class="cls-1" d="M347.9,20.9V50.1h-6.7l-3.9-13.3V50.1H331V20.9h6.3l4.3,13.2V20.9Z"/><path class="cls-1" d="M359.1,20.9V50.1h-7.5V20.9Z"/><path class="cls-1" d="M380.1,38a48.3,48.3,0,0,1-.2,6.2,5.9,5.9,0,0,1-1.3,3.4,6.6,6.6,0,0,1-2.9,2.3,11.4,11.4,0,0,1-4.3.8,9.3,9.3,0,0,1-4.2-.8,5.8,5.8,0,0,1-3-2.3,6.9,6.9,0,0,1-1.4-3.3c-.1-1.2-.2-3.3-.2-6.3V33c0-2.9.1-5,.2-6.2a6.8,6.8,0,0,1,1.3-3.3,6.8,6.8,0,0,1,2.9-2.4,11.9,11.9,0,0,1,4.4-.8,11.6,11.6,0,0,1,4.2.8,7.6,7.6,0,0,1,3,2.3,6.8,6.8,0,0,1,1.3,3.3,49.2,49.2,0,0,1,.2,6.3Zm-7.5-9.6a7.2,7.2,0,0,0-.3-2.6c-.1-.4-.4-.5-.9-.5a1,1,0,0,0-.9.4,6.7,6.7,0,0,0-.3,2.7V42a17.3,17.3,0,0,0,.2,3.2c.1.4.4.6,1,.6a.9.9,0,0,0,.9-.7,11.1,11.1,0,0,0,.3-3.3Z"/><path class="cls-1" d="M400.5,20.9V50.1h-6.6l-4-13.3V50.1h-6.3V20.9h6.3l4.3,13.2V20.9Z"/><path class="cls-1" d="M423.1,40.4h2.6q0,1.5,1.2,1.5a2.9,2.9,0,0,0,1.6-.4,2,2,0,0,0,.9-.9,16.5,16.5,0,0,0,.7-2.6L432,27.6h2.9L433,38c-.5,2.6-1.2,4.3-2.2,5.2a6.7,6.7,0,0,1-4.3,1.2,3.4,3.4,0,0,1-2.5-.8,2.9,2.9,0,0,1-1-2.3A2.8,2.8,0,0,1,423.1,40.4Z"/><path class="cls-1" d="M445.4,44.2h-2.8l.2-.9a6.2,6.2,0,0,1-3.9,1.1,3.6,3.6,0,0,1-2.4-.8,3.5,3.5,0,0,1-.9-2.5c0-.4.1-.7.1-1.2l1.5-7.8h2.9l-1.5,7.7c0,.3-.1.6-.1.8s.6,1.5,1.7,1.5a3.3,3.3,0,0,0,2.3-.9,4.3,4.3,0,0,0,1.1-2.1l1.2-7h2.9Z"/><path class="cls-1" d="M459,44.2h-2.8l.2-1.1a3.4,3.4,0,0,1-3.1,1.3,4.5,4.5,0,0,1-3.3-1.2,4.7,4.7,0,0,1-1.2-3.4,8.4,8.4,0,0,1,1.9-5.7,6.5,6.5,0,0,1,5.2-2.2,3.2,3.2,0,0,1,1.3.2,3.8,3.8,0,0,1,1.1.5l1.1-5.5h2.7Zm-2.9-9.9a3.9,3.9,0,0,0-3.2,1.4,6.2,6.2,0,0,0-1.1,3.7c0,1.8.7,2.7,2.3,2.7s2.7-1.3,3.2-3.9l.5-2.9A1.7,1.7,0,0,0,456.1,34.3Z"/><path class="cls-1" d="M462.9,39.7a7.9,7.9,0,0,1,2-5.6,6.3,6.3,0,0,1,5-2.2,4.9,4.9,0,0,1,3.6,1.2,4.4,4.4,0,0,1,1.3,3.4,8,8,0,0,1-2,5.7,6.4,6.4,0,0,1-5.1,2.2,5.2,5.2,0,0,1-3.6-1.2A4.8,4.8,0,0,1,462.9,39.7Zm2.9-.2c0,1.8.7,2.6,2.2,2.6a3.1,3.1,0,0,0,2.8-1.6,7.1,7.1,0,0,0,1.1-3.9,2.1,2.1,0,0,0-2.3-2.4,3.2,3.2,0,0,0-2.8,1.6A7.6,7.6,0,0,0,465.8,39.5Z"/><path class="cls-1" d="M483.4,38.5V36.3h15.5v2.2Z"/><path class="cls-1" d="M525.9,36.3l-1.5,7.9h-2.9l1.4-7.6a2.2,2.2,0,0,0,.1-.8c0-1.1-.6-1.6-1.7-1.6a3.8,3.8,0,0,0-1.3.4,4.5,4.5,0,0,0-1,.9l-1.6,8.7h-2.9l1.6-8.5v-.3q0-1.2-1.8-1.2l-1.2.4a5.3,5.3,0,0,0-1.1.9l-1.6,8.7h-2.9l1.6-8.7a2.8,2.8,0,0,0,.1-1,8.3,8.3,0,0,0-.3-2.2l2.7-.5.3,1.1a5.5,5.5,0,0,1,3.4-1,4,4,0,0,1,3.4,1.3,5.2,5.2,0,0,1,3.6-1.3c2.5,0,3.7,1.1,3.7,3.3C526,35.5,525.9,35.9,525.9,36.3Z"/><path class="cls-1" d="M527.5,39.7a7.9,7.9,0,0,1,2-5.6,6.3,6.3,0,0,1,5-2.2,5.3,5.3,0,0,1,3.7,1.2,4.7,4.7,0,0,1,1.2,3.4,8,8,0,0,1-2,5.7,6.4,6.4,0,0,1-5.1,2.2,5.2,5.2,0,0,1-3.6-1.2A4.8,4.8,0,0,1,527.5,39.7Zm2.9-.2c0,1.8.8,2.6,2.2,2.6a3,3,0,0,0,2.8-1.6,7.1,7.1,0,0,0,1.1-3.9,2.1,2.1,0,0,0-2.3-2.4,3.1,3.1,0,0,0-2.7,1.6A6.7,6.7,0,0,0,530.4,39.5Z"/><path class="cls-1" d="M549.9,35a2.9,2.9,0,0,0-1.7-.8,2.8,2.8,0,0,0-2.1,1,4.2,4.2,0,0,0-1.1,2.2l-1.3,6.8h-2.8l2.2-12.1H546l-.2,1a5.2,5.2,0,0,1,3.3-1.2,6.6,6.6,0,0,1,1.7.2Z"/><path class="cls-1" d="M554.6,39c0,.2-.1.3-.1.5a2.4,2.4,0,0,0,.8,1.9,2.8,2.8,0,0,0,2.1.7,3.4,3.4,0,0,0,1.6-.4,6.6,6.6,0,0,0,1.5-.9l-.3,3a9.5,9.5,0,0,1-3.5.6A4.8,4.8,0,0,1,553,43a5.3,5.3,0,0,1-1.4-3.9,7.5,7.5,0,0,1,2-5.2,7.4,7.4,0,0,1,5.3-2,4.9,4.9,0,0,1,3.1.8,2.6,2.6,0,0,1,1.2,2.3,3.6,3.6,0,0,1-1.8,3.2,7.5,7.5,0,0,1-4.3,1.2A10.1,10.1,0,0,1,554.6,39Zm.5-2.2a4.1,4.1,0,0,0,1.6.2,6.8,6.8,0,0,0,2.6-.4c.7-.4,1.1-.8,1.1-1.4s-.7-1-2.2-1a2.9,2.9,0,0,0-1.7.8A4.9,4.9,0,0,0,555.1,36.8Z"/><path class="cls-1" d="M580.4,34.4h-3.3l-1.2,5.3a6.5,6.5,0,0,0-.2,1.1c0,.9.5,1.3,1.4,1.3a6.2,6.2,0,0,0,2.1-.6V44a9.9,9.9,0,0,1-3.3.4,3,3,0,0,1-2.3-.8,3.4,3.4,0,0,1-.8-2.3,2.8,2.8,0,0,1,.1-.9l1.4-6h-1.4l.5-2.3h1.4l.4-2.5,3.3-1.2-.9,3.7h3.3Z"/><path class="cls-1" d="M593.5,36.8l-1.4,7.4h-2.9l1.5-7.5V36c0-1.2-.5-1.7-1.7-1.7a3.7,3.7,0,0,0-2.7,1.2l-1.6,8.7h-2.9l3.1-17.1h2.8l-.9,5.7a5.9,5.9,0,0,1,3.1-.9,4.1,4.1,0,0,1,2.8.9,4.1,4.1,0,0,1,1,2.8A6,6,0,0,1,593.5,36.8Z"/><path class="cls-1" d="M605.8,39.9a2.8,2.8,0,0,0-.1.9,8.8,8.8,0,0,0,.4,3.4h-1.8q-.7,0-1.2-1.2a4.5,4.5,0,0,1-3.6,1.4,3.7,3.7,0,0,1-3-1.1,3.8,3.8,0,0,1-1.1-3.1,8.9,8.9,0,0,1,2.1-5.9,6.6,6.6,0,0,1,5.2-2.4,15.4,15.4,0,0,1,4.5.5Zm-3.3-5.7a3.3,3.3,0,0,0-3,1.8,7.4,7.4,0,0,0-1.2,4.2,1.7,1.7,0,0,0,1.9,1.9,2.5,2.5,0,0,0,2.2-1.5c.6-1,1.1-3,1.6-6.2Z"/><path class="cls-1" d="M619.3,44.2h-3l1.4-7a8.6,8.6,0,0,0,.1-1.5q0-1.5-1.8-1.5a3.9,3.9,0,0,0-2.7,1.3l-1.6,8.7h-2.8l1.7-9.1v-.6a8.9,8.9,0,0,0-.3-2.2l2.8-.5.2,1.4a5.5,5.5,0,0,1,3.8-1.3c2.5,0,3.7,1.1,3.7,3.5a7.8,7.8,0,0,1-.2,1.4Z"/><path class="cls-1" d="M638,35.4a4.1,4.1,0,0,0-2.5-1.2,2.1,2.1,0,0,0-1.2.3,1.1,1.1,0,0,0-.5.9c0,.5.4.9,1.2,1.3l1.9,1a3.5,3.5,0,0,1,1.1,1,3.3,3.3,0,0,1,.4,1.4,3.8,3.8,0,0,1-1.5,3.2,6,6,0,0,1-3.9,1.1,7.2,7.2,0,0,1-3.9-1.1l1.5-2.5a4.7,4.7,0,0,0,2.8,1.3,2.6,2.6,0,0,0,1.4-.4,1.4,1.4,0,0,0,.6-1.2c0-.4-.4-.8-1.1-1.2l-1.8-1a3.6,3.6,0,0,1-1.3-1.1,2.4,2.4,0,0,1-.4-1.5,3.5,3.5,0,0,1,1.4-2.8,5.6,5.6,0,0,1,3.5-1,10.4,10.4,0,0,1,3.6.9Z"/><path class="cls-1" d="M643.4,43.9l-.9,5.1h-2.9l2.5-13.2a6.1,6.1,0,0,0,.1-1.4,13.6,13.6,0,0,0-.2-2l2.8-.5A3.6,3.6,0,0,1,645,33a5.8,5.8,0,0,1,3.1-1.1c3.3,0,4.9,1.5,4.9,4.7a8,8,0,0,1-2,5.6,6.7,6.7,0,0,1-5.3,2.2A4.6,4.6,0,0,1,643.4,43.9Zm.4-2.4a2.1,2.1,0,0,0,1.6.6,4.5,4.5,0,0,0,3.5-1.4,6.1,6.1,0,0,0,1.1-3.8,2.4,2.4,0,0,0-2.6-2.6,2.4,2.4,0,0,0-1.3.4,3.6,3.6,0,0,0-1.2.8Z"/><path class="cls-1" d="M654.8,39.7a8.3,8.3,0,0,1,2-5.6,6.7,6.7,0,0,1,5.1-2.2,4.9,4.9,0,0,1,3.6,1.2,4.4,4.4,0,0,1,1.3,3.4,8.4,8.4,0,0,1-2,5.7,6.4,6.4,0,0,1-5.1,2.2,5.2,5.2,0,0,1-3.6-1.2A4.8,4.8,0,0,1,654.8,39.7Zm3-.2c0,1.8.7,2.6,2.2,2.6a3.1,3.1,0,0,0,2.8-1.6,7.1,7.1,0,0,0,1-3.9c0-1.6-.7-2.4-2.2-2.4a3.1,3.1,0,0,0-2.8,1.6A6.6,6.6,0,0,0,657.8,39.5Z"/><path class="cls-1" d="M677.3,35a3.4,3.4,0,0,0-1.8-.8,2.6,2.6,0,0,0-2,1,3.6,3.6,0,0,0-1.1,2.2l-1.3,6.8h-2.9l2.3-12.1h2.8v1a5.2,5.2,0,0,1,3.3-1.2l1.6.2Z"/><path class="cls-1" d="M687.6,34.4h-3.4L683,39.7a4.9,4.9,0,0,0-.1,1.1c0,.9.4,1.3,1.4,1.3a5.8,5.8,0,0,0,2-.6V44a9.9,9.9,0,0,1-3.3.4,2.7,2.7,0,0,1-2.2-.8,3,3,0,0,1-.9-2.3c0-.3.1-.6.1-.9l1.4-6H680l.5-2.3h1.4l.5-2.5,3.2-1.2-.9,3.7h3.4Z"/><path class="cls-1" d="M690.3,42.6a2.1,2.1,0,0,1,.5-1.3,2.4,2.4,0,0,1,1.4-.5,2.1,2.1,0,0,1,1.3.5,1.8,1.8,0,0,1,.6,1.3,1.6,1.6,0,0,1-.6,1.3,1.7,1.7,0,0,1-1.3.5,1.9,1.9,0,0,1-1.4-.5A1.9,1.9,0,0,1,690.3,42.6Zm3.1-3.2h-1.5l.2-3.1a16.2,16.2,0,0,1,.1-2.3c.1-.7.2-1.4.3-1.9l.8-4.8h3.4l-.6,3.8a31.7,31.7,0,0,1-1.2,3.9Z"/><polygon class="cls-2" points="18.8 44.8 18.7 44.8 13.5 60.8 27.9 65.6 34.7 44.8 18.8 44.8 18.8 44.8"/><polygon class="cls-2" points="33.5 0 27.7 17.3 29 18.2 47.6 4.6 33.5 0 33.5 0"/><polygon class="cls-3" points="18 43.4 13.5 29.4 0 39.2 8.9 51.5 18.4 44.6 18.4 44.5 18 43.4 18 43.4"/><polygon class="cls-3" points="57.6 15.8 48.8 3.5 28.9 18.2 41.8 27.5 41.9 27.6 57.6 15.8 57.6 15.8"/><polygon class="cls-4" points="47.9 46 39.7 34.9 39 37.1 37 43.4 36.6 44.5 36.5 44.8 28.2 44.8 35.6 55 47.9 46 47.9 46"/><polygon class="cls-4" points="21.9 10.4 21.9 10.4 14.7 0.3 2.4 9.2 7.4 16.3 7.4 16.3 14.8 26.4 27.1 17.4 21.9 10.4 21.9 10.4"/><polygon class="cls-5" points="36.1 44.4 18.8 44.4 18.4 43.2 13.8 29 13.4 27.9 14.4 27.2 20.5 22.8 26.5 18.4 27.5 17.7 28.4 18.4 34.5 22.8 40.5 27.2 41.5 27.9 41.1 29 38.6 36.9 36.5 43.2 36.1 44.4 36.1 44.4"/><path class="cls-2" d="M15.4,28.5,20,42.7H34.9l4.7-14.2L27.5,19.7,15.4,28.5Z"/><path class="cls-6" d="M34.3,30.2s1.4,0,1.8,1-.2,1.9-.3,2.7a1.5,1.5,0,0,0,.5,1.4,1.4,1.4,0,0,0-1.2.7c-.4.8-.4,1.9-1.3,2.5s-2.1-.3-2.1-.3.4,1.4-.4,2.1-1.9.4-2.7.4a1.5,1.5,0,0,0-1.1,1,1.5,1.5,0,0,0-1.1-1c-.9,0-1.9.3-2.7-.4s-.4-2.1-.4-2.1-1.2.8-2.1.3-1-1.7-1.3-2.4a1.3,1.3,0,0,0-1.2-.8,1.5,1.5,0,0,0,.5-1.4c-.2-.8-.8-1.7-.4-2.7s1.8-1,1.8-1a2.2,2.2,0,0,1-.9-1.9c.3-1,1.3-1.4,2-1.9A1.4,1.4,0,0,0,22,25a1.6,1.6,0,0,0,1.5.1c.7-.4,1.4-1.3,2.4-1.2s1.6,1.4,1.6,1.4.4-1.3,1.5-1.4,1.8.8,2.5,1.2a1.4,1.4,0,0,0,1.4-.1,1.5,1.5,0,0,0,.4,1.4c.6.6,1.6.9,1.9,2s-.9,1.8-.9,1.8Z"/><path class="cls-1" d="M34.3,30.2s1.4,0,1.8,1-.2,1.9-.3,2.7a1.5,1.5,0,0,0,.5,1.4,1.4,1.4,0,0,0-1.2.7c-.4.8-.4,1.9-1.3,2.5a2.3,2.3,0,0,1-2.1-.3s.4,1.4-.4,2.1-1.9.4-2.7.4a1.5,1.5,0,0,0-1.1,1,1.5,1.5,0,0,0-1.2-1c-.8,0-1.8.3-2.7-.4s-.3-2.1-.3-2.1-1.2.8-2.1.3-1-1.7-1.3-2.4a1.3,1.3,0,0,0-1.2-.8,1.5,1.5,0,0,0,.5-1.4c-.2-.8-.8-1.7-.4-2.7s1.8-1,1.8-1a2.2,2.2,0,0,1-.9-1.9c.3-1,1.3-1.4,1.9-1.9A1.3,1.3,0,0,0,22,25a1.6,1.6,0,0,0,1.5.1c.7-.4,1.4-1.3,2.4-1.2s1.6,1.4,1.6,1.4.4-1.3,1.5-1.4,1.7.8,2.5,1.2a1.4,1.4,0,0,0,1.4-.1,1.5,1.5,0,0,0,.4,1.4c.6.6,1.6.9,1.9,2s-.9,1.8-.9,1.8Z"/><path class="cls-5" d="M32.9,32.5a5.4,5.4,0,1,1-5.4-5.4,5.4,5.4,0,0,1,5.4,5.4Z"/><path class="cls-7" d="M22.8,32.5a4.7,4.7,0,1,0,4.7-4.6,4.7,4.7,0,0,0-4.7,4.6Z"/><polygon class="cls-5" points="28.4 29.7 27.2 29.7 27.2 30.3 28.3 30.3 28.3 30.7 27.2 30.7 27.2 31.4 28.4 31.4 28.4 31.9 26.6 31.9 26.6 29.2 28.4 29.2 28.4 29.7 28.4 29.7"/><path class="cls-5" d="M29.9,33.2a4.2,4.2,0,0,1-.1,1.3,2.1,2.1,0,0,1-2.3,1.7,2,2,0,0,1-2.1-1.1,3,3,0,0,1-.4-1.9v-4h.8v4c0,.6,0,.7.1.9s.6,1.3,1.6,1.3,1.2-.2,1.4-.6a3.2,3.2,0,0,0,.2-1.6v-4h.8v4Z"/><path class="cls-5" d="M28.4,32.2H26.6v.5h1.2v1.2c0,.3-.1.5-.3.5s-.3-.1-.3-.2a.3.3,0,0,1-.1-.2h-.5a.8.8,0,0,0,.9.9.8.8,0,0,0,.7-.3.8.8,0,0,0,.2-.7V32.7h0v-.5Z"/></svg>